<?xml version="1.0" encoding="UTF-8"?>
<svg id="Layer_1" data-name="Layer 1" xmlns="http://www.w3.org/2000/svg" xmlns:xlink="http://www.w3.org/1999/xlink" viewBox="0 0 108.56 116.94">
  <defs>
    <style>
      .cls-1 {
        fill: url(#linear-gradient);
      }
    </style>
    <linearGradient id="linear-gradient" x1="0" y1="58.47" x2="108.56" y2="58.47" gradientUnits="userSpaceOnUse">
      <stop offset="0" stop-color="#167cf4"/>
      <stop offset="1" stop-color="#0f1df5"/>
    </linearGradient>
  </defs>
  <path class="cls-1" d="M108.55,58.47c0,5.05,0,10.09,0,15.14.01,10.64-4.77,18.7-13.65,24.19-8.57,5.29-17.33,10.3-26.13,15.2-9.56,5.32-19.27,5.27-28.81-.16-8.11-4.61-16.11-9.42-24.23-14.03C5.15,92.79.12,83.64.06,71.63c-.04-8.97-.13-17.94.02-26.91.2-11.51,4.96-20.47,15.18-26.29,8.27-4.71,16.44-9.59,24.7-14.31,9.55-5.46,19.22-5.48,28.79-.13,8.79,4.91,17.61,9.81,26.14,15.16,8.78,5.51,13.77,13.48,13.66,24.19-.05,5.04,0,10.09-.01,15.14ZM90.2,67.55s-.03,0-.04,0c0-6.16.1-12.33-.03-18.49-.16-7.72-3.67-13.56-10.35-17.44-10.01-5.8-19.96-11.72-30.08-17.31-14.85-8.21-30.79,1.2-31.04,18.29-.17,11.39-.11,22.79-.03,34.19.06,7.86,3.32,14.12,10.15,18.17,10.27,6.09,20.51,12.26,31.01,17.93,14.33,7.74,29.66-1.14,30.38-17.41.26-5.97.04-11.95.04-17.93Z"/>
</svg>